<svg width="167" height="167" viewBox="0 0 167 167" fill="none" xmlns="http://www.w3.org/2000/svg">
<g clip-path="url(#clip0_15_103)">
<path d="M137 0H30C13.4315 0 0 13.4315 0 30V137C0 153.569 13.4315 167 30 167H137C153.569 167 167 153.569 167 137V30C167 13.4315 153.569 0 137 0Z" fill="black" fill-opacity="0.35"/>
<mask id="mask0_15_103" style="mask-type:luminance" maskUnits="userSpaceOnUse" x="22" y="22" width="122" height="122">
<path d="M144 22H22V144H144V22Z" fill="white"/>
</mask>
<g mask="url(#mask0_15_103)">
<path fill-rule="evenodd" clip-rule="evenodd" d="M130.217 68.8303C137.845 68.7716 144.016 74.9179 144 82.5623C143.982 90.2047 137.785 96.4476 130.157 96.5073L96.7042 96.741L96.4709 130.293C96.4084 137.872 90.1781 144.009 82.5567 144C74.9334 143.99 68.8073 137.836 68.8699 130.255L69.1012 96.935L35.7822 97.1688C28.1559 97.2284 21.9841 91.0811 22 83.4377C22.0179 75.7953 28.2164 69.5524 35.8437 69.4937L69.2958 69.259L69.5301 35.7072C69.5937 28.1285 75.823 21.9911 83.4443 22C91.0677 22.009 97.1937 28.1643 97.1302 35.745L96.8988 69.065L130.217 68.8303Z" fill="white"/>
</g>
</g>
<defs>
<clipPath id="clip0_15_103">
<rect width="167" height="167" fill="white"/>
</clipPath>
</defs>
</svg>
